<svg width="56" height="56" viewBox="0 0 56 56" fill="none" xmlns="http://www.w3.org/2000/svg">
<path fill-rule="evenodd" clip-rule="evenodd" d="M45.4668 10.1917C51.0905 15.9178 54.6001 23.1348 55.3495 30.5094C56.116 38.0204 53.9367 44.8034 49.2205 49.602C45.1196 53.7775 39.551 56 33.3223 56C32.3839 56 31.4317 55.9475 30.4658 55.846C23.2231 55.083 16.135 51.5095 10.5114 45.7834C-1.1966 33.8624 -2.88096 16.1873 6.75766 6.37323C16.3894 -3.44422 33.7554 -1.72571 45.4668 10.1917ZM25.698 31.1394C30.2148 32.3994 34.3742 33.5789 38.2104 36.5609C41.2185 38.9001 43.3612 41.8727 45.5279 44.8788C46.5254 46.2627 47.5279 47.6536 48.6224 48.9931C47.3574 37.8455 41.854 28.2695 30.7305 24.9829C30.557 24.9318 30.3842 24.8809 30.2118 24.8302C25.3484 23.3984 20.9072 22.0909 16.8603 18.7039C14.2577 16.5242 12.3417 13.8186 10.4147 11.0975C9.43009 9.70711 8.44261 8.3127 7.35921 6.98234C8.6792 18.3048 14.3269 27.9648 25.698 31.1394Z" fill="#FDD6BA"/>
</svg>
