<svg xmlns="http://www.w3.org/2000/svg" width="87" height="54" fill="none"><path fill="#FDD6BA" d="M25.313.16c5.088 0 9.408 1.032 12.96 3.096 3.552 2.064 6.252 5.088 8.1 9.072 1.872 3.984 2.808 8.844 2.808 14.58 0 5.4-1.008 10.092-3.024 14.076-1.992 3.96-4.812 7.032-8.46 9.216-3.624 2.16-7.908 3.24-12.852 3.24-5.064 0-9.384-1.032-12.96-3.096-3.552-2.064-6.264-5.088-8.136-9.072C1.901 37.288.977 32.428.977 26.692c0-5.4.996-10.08 2.988-14.04 2.016-3.984 4.848-7.056 8.496-9.216C16.11 1.252 20.393.16 25.313.16ZM32.19 28.6c0-5.904-.276-10.62-.828-14.148-.528-3.528-1.344-6.072-2.448-7.632-1.08-1.56-2.46-2.34-4.14-2.34-1.536 0-2.808.684-3.816 2.052-1.008 1.344-1.764 3.528-2.268 6.552-.48 3-.72 6.972-.72 11.916 0 5.904.264 10.62.792 14.148.552 3.528 1.368 6.072 2.448 7.632 1.104 1.56 2.496 2.34 4.176 2.34 1.536 0 2.808-.672 3.816-2.016 1.008-1.368 1.752-3.552 2.232-6.552.504-3.024.756-7.008.756-11.952Zm25.414-18.576h2.196c.84 0 1.44.216 1.8.648.384.432.576 1.248.576 2.448v29.844c0 .96-.192 1.692-.576 2.196-.36.48-.888.804-1.584.972l-3.6.792c-1.608.384-2.412 1.248-2.412 2.592 0 .768.252 1.38.756 1.836.528.432 1.332.648 2.412.648h26.172c.936 0 1.632-.216 2.088-.648.456-.456.684-1.068.684-1.836 0-1.368-.672-2.22-2.016-2.556l-3.204-.828c-.648-.168-1.152-.492-1.512-.972-.336-.504-.504-1.236-.504-2.196v-39.6c0-1.896-.972-2.844-2.916-2.844-.6 0-1.176.072-1.728.216-.528.12-1.116.348-1.764.684-1.992.96-3.804 1.692-5.436 2.196-1.632.504-3.624.756-5.976.756h-3.24c-1.032 0-1.848.276-2.448.828-.6.528-.9 1.2-.9 2.016 0 .816.252 1.488.756 2.016s1.296.792 2.376.792Z"/></svg>