<svg xmlns="http://www.w3.org/2000/svg" width="95" height="54" fill="none"><path fill="#FDD6BA" d="M24.981.16c5.088 0 9.408 1.032 12.96 3.096 3.552 2.064 6.252 5.088 8.1 9.072 1.872 3.984 2.808 8.844 2.808 14.58 0 5.4-1.008 10.092-3.024 14.076-1.992 3.96-4.812 7.032-8.46 9.216-3.624 2.16-7.908 3.24-12.852 3.24-5.064 0-9.384-1.032-12.96-3.096-3.552-2.064-6.264-5.088-8.136-9.072C1.57 37.288.645 32.428.645 26.692c0-5.4.996-10.08 2.988-14.04C5.65 8.668 8.481 5.596 12.13 3.436 15.777 1.252 20.061.16 24.981.16Zm6.876 28.44c0-5.904-.276-10.62-.828-14.148-.528-3.528-1.344-6.072-2.448-7.632-1.08-1.56-2.46-2.34-4.14-2.34-1.536 0-2.808.684-3.816 2.052-1.008 1.344-1.764 3.528-2.268 6.552-.48 3-.72 6.972-.72 11.916 0 5.904.264 10.62.792 14.148.552 3.528 1.368 6.072 2.448 7.632 1.104 1.56 2.496 2.34 4.176 2.34 1.536 0 2.808-.672 3.816-2.016 1.008-1.368 1.752-3.552 2.232-6.552.504-3.024.756-7.008.756-11.952Zm40.39-2.736-1.224-1.188c.48-.144.996-.264 1.548-.36.552-.096 1.14-.168 1.764-.216a17.29 17.29 0 0 1 1.98-.108c3.432 0 6.444.528 9.036 1.584 2.592 1.056 4.608 2.568 6.048 4.536 1.464 1.944 2.196 4.272 2.196 6.984 0 3.312-.852 6.192-2.556 8.64-1.68 2.448-4.092 4.344-7.236 5.688-3.12 1.344-6.852 2.016-11.196 2.016-4.2 0-7.692-.504-10.476-1.512-2.784-1.008-4.872-2.4-6.264-4.176-1.368-1.776-2.052-3.804-2.052-6.084 0-2.304.756-4.188 2.268-5.652 1.512-1.488 3.384-2.232 5.616-2.232 2.424 0 4.236.636 5.436 1.908 1.224 1.248 1.836 2.916 1.836 5.004v3.852c0 1.392.3 2.58.9 3.564.624.984 1.5 1.476 2.628 1.476 1.128 0 2.088-.336 2.88-1.008.792-.696 1.404-1.788 1.836-3.276.432-1.512.648-3.492.648-5.94 0-3.648-.576-6.252-1.728-7.812-1.128-1.56-2.688-2.34-4.68-2.34h-2.592c-.984 0-1.716-.216-2.196-.648-.48-.456-.72-1.092-.72-1.908 0-.624.132-1.176.396-1.656.288-.48.792-1.032 1.512-1.656l16.02-13.932.432 4.464h-19.08c-1.008 0-1.788.18-2.34.54-.552.336-.924.9-1.116 1.692l-.72 2.844c-.168.696-.492 1.26-.972 1.692-.456.408-1.128.612-2.016.612-.864 0-1.572-.228-2.124-.684-.552-.48-.78-1.2-.684-2.16l1.296-13.464c.096-1.032.516-1.848 1.26-2.448.744-.6 1.74-.9 2.988-.9h29.268c1.464 0 2.508.18 3.132.54.624.36.936.936.936 1.728 0 .528-.204 1.128-.612 1.8-.384.672-1.212 1.596-2.484 2.772L72.247 25.864Z"/></svg>