<svg xmlns="http://www.w3.org/2000/svg" width="99" height="54" fill="none"><path fill="#FDD6BA" d="M25.223.16c5.088 0 9.408 1.032 12.96 3.096 3.552 2.064 6.252 5.088 8.1 9.072 1.872 3.984 2.808 8.844 2.808 14.58 0 5.4-1.008 10.092-3.024 14.076-1.992 3.96-4.812 7.032-8.46 9.216-3.624 2.16-7.908 3.24-12.852 3.24-5.064 0-9.384-1.032-12.96-3.096-3.552-2.064-6.264-5.088-8.136-9.072C1.811 37.288.887 32.428.887 26.692c0-5.4.996-10.08 2.988-14.04 2.016-3.984 4.848-7.056 8.496-9.216C16.02 1.252 20.303.16 25.223.16ZM32.1 28.6c0-5.904-.276-10.62-.828-14.148-.528-3.528-1.344-6.072-2.448-7.632-1.08-1.56-2.46-2.34-4.14-2.34-1.536 0-2.808.684-3.816 2.052-1.008 1.344-1.764 3.528-2.268 6.552-.48 3-.72 6.972-.72 11.916 0 5.904.264 10.62.792 14.148.552 3.528 1.368 6.072 2.448 7.632 1.104 1.56 2.496 2.34 4.176 2.34 1.536 0 2.808-.672 3.816-2.016 1.008-1.368 1.752-3.552 2.232-6.552.504-3.024.756-7.008.756-11.952Zm28.618 11.232L58.27 37.96l6.624-3.384c2.616-1.344 4.836-2.892 6.66-4.644a17.319 17.319 0 0 0 4.14-6.156c.96-2.352 1.44-5.088 1.44-8.208 0-2.88-.168-5.172-.504-6.876-.312-1.728-.78-2.976-1.404-3.744-.6-.768-1.332-1.152-2.196-1.152-1.2 0-2.052.552-2.556 1.656-.48 1.104-.72 2.628-.72 4.572v5.004c0 2.208-.684 3.972-2.052 5.292-1.344 1.32-3.228 1.98-5.652 1.98-2.28 0-4.104-.708-5.472-2.124-1.344-1.416-2.016-3.408-2.016-5.976 0-2.448.708-4.74 2.124-6.876 1.44-2.136 3.648-3.864 6.624-5.184C66.285.82 70.09.16 74.721.16c4.584 0 8.34.636 11.268 1.908 2.928 1.272 5.088 3.036 6.48 5.292 1.416 2.232 2.124 4.788 2.124 7.668 0 2.544-.72 4.896-2.16 7.056-1.44 2.16-3.684 4.236-6.732 6.228-3.024 1.968-6.912 3.948-11.664 5.94l-13.32 5.58Zm-7.272 5.688c0-2.832 1.104-5.088 3.312-6.768 2.208-1.704 5.412-2.556 9.612-2.556 1.896 0 3.684.12 5.364.36 1.68.216 3.324.468 4.932.756 1.608.288 3.252.552 4.932.792 1.68.216 3.456.324 5.328.324 1.608 0 2.904-.3 3.888-.9 1.008-.624 1.92-1.596 2.736-2.916.384-.624.792-1.056 1.224-1.296.456-.24.948-.336 1.476-.288.624.048 1.092.348 1.404.9.336.528.456 1.38.36 2.556-.312 4.08-1.032 7.368-2.16 9.864-1.128 2.472-2.628 4.272-4.5 5.4-1.848 1.128-4.032 1.692-6.552 1.692-2.016 0-3.78-.288-5.292-.864-1.488-.552-2.772-1.476-3.852-2.772-1.056-1.296-1.968-3.048-2.736-5.256-.384-1.176-.744-1.944-1.08-2.304-.312-.36-.732-.54-1.26-.54-.576 0-1.056.276-1.44.828-.384.528-.636 1.404-.756 2.628-.168 2.04-.6 3.672-1.296 4.896-.696 1.2-1.632 2.064-2.808 2.592-1.152.528-2.532.792-4.14.792-1.944 0-3.552-.708-4.824-2.124-1.248-1.44-1.872-3.372-1.872-5.796Z"/></svg>